<?xml version="1.0" standalone="no"?>
<!DOCTYPE svg PUBLIC "-//W3C//DTD SVG 20010904//EN"
 "http://www.w3.org/TR/2001/REC-SVG-20010904/DTD/svg10.dtd">
<svg version="1.0" xmlns="http://www.w3.org/2000/svg"
 width="218.000000pt" height="231.000000pt" viewBox="0 0 218.000000 231.000000"
 preserveAspectRatio="xMidYMid meet">
<metadata>
Created by potrace 1.16, written by Peter Selinger 2001-2019
</metadata>
<g transform="translate(0.000000,231.000000) scale(0.100000,-0.100000)"
fill="#000000" stroke="none">
<path d="M1020 1919 c0 -5 -4 -8 -9 -4 -5 3 -13 0 -17 -6 -4 -8 -3 -9 4 -5 8
5 12 0 12 -13 0 -25 -20 -39 -21 -14 0 11 -3 13 -6 5 -3 -7 2 -24 11 -37 18
-27 63 -34 84 -13 17 17 15 64 -4 82 -17 18 -54 22 -54 5z"/>
<path d="M1030 1740 c0 -33 4 -60 10 -60 6 0 10 27 10 60 0 33 -4 60 -10 60
-6 0 -10 -27 -10 -60z"/>
<path d="M980 1652 c0 -4 -16 -16 -36 -27 -19 -10 -48 -34 -64 -52 -29 -32
-60 -44 -60 -22 0 19 59 67 103 82 23 9 33 16 22 16 -53 2 -165 -74 -165 -111
0 -17 16 -18 260 -18 283 0 282 0 239 54 -26 34 -79 60 -147 75 -61 13 -152
15 -152 3z"/>
<path d="M742 1478 c3 -30 6 -33 38 -33 32 0 35 3 38 33 3 31 3 32 -38 32 -41
0 -41 -1 -38 -32z"/>
<path d="M860 1475 l0 -35 228 0 c125 0 233 4 240 9 8 4 12 19 10 32 l-3 24
-237 3 -238 2 0 -35z"/>
<path d="M614 1409 c-3 -6 25 -42 65 -83 l71 -72 0 -321 c0 -226 4 -324 11
-329 7 -4 131 -6 277 -5 146 0 269 1 274 1 4 0 8 182 8 405 0 263 -3 405 -10
405 -6 0 -10 -138 -10 -395 l0 -395 -262 2 -263 3 -3 398 -2 397 -75 0 c-43 0
-77 -5 -81 -11z m113 -6 c-20 -2 -52 -2 -70 0 -17 2 0 4 38 4 39 0 53 -2 32
-4z"/>
<path d="M1030 1265 c0 -97 4 -155 10 -155 6 0 10 58 10 155 0 97 -4 155 -10
155 -6 0 -10 -58 -10 -155z"/>
<path d="M1340 1371 c0 -28 1 -29 65 -33 94 -6 99 -13 103 -153 4 -111 3 -115
-22 -140 -21 -21 -34 -25 -86 -25 l-60 0 0 -30 0 -30 86 0 c81 0 87 1 115 29
l29 29 0 151 c0 82 -4 161 -10 175 -14 39 -59 56 -145 56 l-75 0 0 -29z m185
-330 c-9 -28 -43 -47 -58 -32 -8 8 -6 11 6 11 9 0 24 11 33 25 19 29 29 27 19
-4z"/>
<path d="M1008 1093 c18 -2 45 -2 60 0 15 2 0 4 -33 4 -33 0 -45 -2 -27 -4z"/>
<path d="M800 1050 l0 -30 240 0 240 0 0 30 0 30 -240 0 -240 0 0 -30z"/>
<path d="M800 820 l0 -180 25 0 25 0 0 180 0 180 -25 0 -25 0 0 -180z"/>
<path d="M900 820 l0 -180 190 0 190 0 0 180 0 180 -190 0 -190 0 0 -180z"/>
<path d="M740 550 c0 -28 3 -30 35 -30 32 0 35 2 35 30 0 28 -3 30 -35 30 -32
0 -35 -2 -35 -30z"/>
<path d="M860 550 l0 -30 238 2 237 3 3 28 3 27 -240 0 -241 0 0 -30z"/>
<path d="M0 65 l0 -65 1090 0 1090 0 0 65 0 65 -1090 0 -1090 0 0 -65z m118
33 c17 -17 15 -33 -2 -19 -7 6 -21 9 -30 5 -17 -7 -22 -34 -6 -34 6 0 9 5 8
11 -2 6 2 13 9 16 6 2 13 -3 15 -12 2 -12 8 -11 31 10 15 14 27 21 27 15 0 -8
23 -11 70 -8 46 2 69 -1 66 -7 -2 -6 6 -12 17 -13 15 -1 18 1 9 7 -11 6 -10
10 3 15 10 3 23 2 29 -3 6 -5 19 -5 30 -2 28 11 76 1 76 -15 0 -18 -51 -19
-69 -1 -11 9 -12 9 -7 0 5 -9 0 -13 -16 -12 -13 0 -69 -1 -125 -1 -57 -1 -107
1 -112 4 -5 3 -11 -1 -15 -9 -8 -22 -53 -19 -66 4 -13 25 -13 27 6 45 19 19
36 20 52 4z m1497 -28 c3 -5 1 -10 -4 -10 -6 0 -11 5 -11 10 0 6 2 10 4 10 3
0 8 -4 11 -10z m155 -2 c0 -4 -21 -8 -46 -8 -25 0 -43 4 -40 8 7 12 86 12 86
0z m307 -2 c4 -3 -52 -5 -123 -5 -73 1 -112 4 -89 8 49 7 204 5 212 -3z"/>
</g>
</svg>
