<?xml version="1.0" standalone="no"?>
<!DOCTYPE svg PUBLIC "-//W3C//DTD SVG 20010904//EN"
 "http://www.w3.org/TR/2001/REC-SVG-20010904/DTD/svg10.dtd">
<svg version="1.0" xmlns="http://www.w3.org/2000/svg"
 width="2000.000000pt" height="2000.000000pt" viewBox="0 0 2000.000000 2000.000000"
 preserveAspectRatio="xMidYMid meet">
<metadata>
Created by potrace 1.16, written by Peter Selinger 2001-2019
</metadata>
<g transform="translate(0.000000,2000.000000) scale(0.100000,-0.100000)"
fill="#000000" stroke="none">
<path d="M4985 16239 c-236 -159 -434 -295 -438 -302 -14 -19 48 -252 80 -303
16 -24 123 -180 239 -347 116 -166 328 -468 470 -672 142 -203 289 -415 327
-470 39 -55 103 -147 143 -205 40 -58 100 -143 133 -190 33 -47 77 -110 98
-140 21 -30 126 -181 233 -335 182 -260 319 -456 543 -780 50 -71 103 -147
118 -169 l28 -39 -21 -41 c-61 -119 -94 -283 -84 -411 9 -105 28 -176 83 -310
49 -117 103 -271 103 -291 0 -6 -16 -15 -35 -18 -19 -4 -70 -25 -114 -47 -153
-76 -277 -235 -317 -405 -16 -68 -15 -248 1 -300 5 -16 -2 -26 -36 -49 -112
-73 -199 -185 -246 -316 -23 -65 -27 -90 -28 -204 l-2 -130 -109 -140 c-306
-393 -500 -748 -580 -1062 -49 -192 -59 -343 -54 -748 7 -560 4 -910 -9 -1013
-42 -334 -141 -634 -299 -904 -54 -94 -65 -121 -66 -160 -1 -41 4 -52 32 -80
28 -28 39 -33 81 -33 56 0 78 15 122 85 16 25 29 42 29 39 0 -3 -11 -51 -24
-105 -91 -370 -126 -850 -81 -1110 19 -106 82 -270 153 -397 267 -475 933
-973 1780 -1332 l162 -68 0 -149 0 -150 29 -29 29 -29 2117 0 2117 0 29 29 29
29 0 152 c0 134 2 151 18 157 142 50 458 197 665 310 716 388 1184 831 1353
1279 68 180 86 329 73 599 -27 582 -149 1034 -455 1686 -42 90 -80 169 -84
174 -4 6 -37 69 -73 140 -152 299 -415 765 -874 1545 -82 140 -205 348 -271
462 -67 113 -122 210 -122 215 0 5 16 17 36 28 20 10 57 43 84 72 166 182 159
415 -25 843 -63 145 -97 271 -76 278 36 12 78 52 90 88 13 37 12 44 -5 80 -12
24 -33 47 -56 59 -46 24 -47 35 -18 215 40 241 107 477 201 702 67 160 82 228
82 368 -1 133 -22 230 -76 342 l-34 70 142 322 c78 176 220 497 315 711 95
215 239 541 320 725 82 184 200 452 263 595 143 324 395 893 516 1166 50 113
91 211 91 218 0 8 199 11 765 11 l765 0 -2 167 -3 167 -795 73 -795 72 -4175
0 -4175 0 -430 -290z m8572 -311 c-4 -13 -72 -171 -152 -353 -81 -181 -239
-539 -352 -795 -113 -256 -299 -676 -413 -935 -229 -516 -546 -1235 -613
-1386 l-42 -97 -65 -11 c-89 -15 -449 -45 -456 -38 -3 3 110 270 251 594 284
648 276 628 467 1068 75 171 208 474 296 675 186 425 512 1169 519 1188 4 10
-38 12 -202 10 l-208 -3 -132 -310 c-72 -170 -180 -425 -239 -565 -60 -140
-146 -343 -191 -450 -46 -107 -117 -274 -157 -370 -470 -1108 -752 -1769 -754
-1767 -2 2 37 124 86 273 48 148 262 793 474 1434 518 1569 576 1745 576 1753
0 4 -970 7 -2155 7 l-2155 0 5 -22 c3 -13 14 -86 25 -163 10 -77 44 -311 75
-520 31 -209 60 -411 66 -450 13 -91 215 -1479 280 -1920 27 -187 52 -359 55
-381 l6 -42 77 -6 c142 -12 395 -25 691 -37 336 -14 1699 -17 1985 -5 105 4
188 5 185 2 -6 -5 -379 -38 -635 -55 -444 -30 -656 -36 -1260 -36 -747 1
-1066 15 -1630 75 -104 11 -278 27 -385 35 -107 9 -222 20 -255 26 l-60 10
-164 372 c-91 205 -199 451 -242 547 -538 1217 -810 1833 -996 2255 -85 193
-161 362 -168 377 -7 15 -10 29 -7 32 3 3 1798 6 3990 6 l3984 0 -5 -22z
m-8047 -333 c197 -444 446 -1007 690 -1560 116 -264 241 -545 276 -624 35 -79
62 -146 60 -148 -3 -3 -265 368 -530 752 -27 38 -140 201 -251 360 -201 289
-379 543 -717 1029 -98 140 -178 259 -178 264 0 10 490 241 504 238 5 -1 71
-141 146 -311z m1735 -3454 c216 -32 762 -60 1615 -82 1060 -27 2802 26 3140
96 23 5 27 0 48 -52 46 -119 54 -243 23 -358 -11 -38 -42 -126 -71 -195 -109
-265 -182 -559 -215 -867 l-7 -63 -1988 0 -1988 0 -7 63 c-30 263 -229 491
-473 540 l-63 13 -48 144 c-27 80 -66 183 -86 230 -79 185 -87 328 -24 495 19
52 23 56 47 51 15 -3 59 -10 97 -15z m69 -1131 c111 -38 187 -107 240 -219 29
-61 31 -74 31 -171 0 -99 -2 -109 -33 -173 -34 -68 -115 -160 -151 -172 -14
-4 -31 6 -64 42 -45 47 -45 48 -28 68 87 95 69 252 -37 328 -54 39 -148 49
-217 22 -72 -27 -135 -117 -135 -194 0 -19 -6 -21 -55 -23 -30 -1 -63 -2 -72
-2 -25 -1 -38 87 -24 166 38 215 232 371 439 351 30 -2 77 -13 106 -23z m4466
-634 c0 -2 7 -42 15 -89 14 -83 35 -146 76 -235 118 -256 162 -456 128 -573
-41 -134 -216 -205 -634 -259 -377 -48 -922 -70 -1780 -70 -1063 0 -1676 33
-2053 109 -112 23 -254 72 -290 99 l-23 17 54 45 c158 132 237 315 223 514 -3
50 -9 102 -12 116 -5 22 2 31 51 64 73 51 143 128 183 204 l33 62 2015 0
c1108 0 2014 -2 2014 -4z m-4727 -103 c166 -78 258 -245 236 -428 -22 -182
-166 -327 -353 -356 -80 -13 -94 -6 -37 17 109 43 161 182 110 294 -27 60 -45
79 -104 106 -115 54 -239 13 -297 -100 -24 -47 -26 -141 -4 -185 25 -47 19
-48 -23 -7 -22 21 -54 67 -72 103 -28 55 -34 78 -37 152 -7 144 42 263 141
344 91 74 162 98 282 94 77 -2 100 -7 158 -34z m-604 -816 c36 -34 76 -69 88
-77 l22 -15 -34 -118 c-127 -441 -215 -1029 -215 -1439 l0 -127 -133 -238
c-150 -267 -329 -606 -402 -760 -27 -57 -50 -101 -52 -100 -2 2 4 48 12 102
32 212 37 419 24 873 -14 469 -7 657 30 863 41 229 146 464 339 759 66 102
241 340 250 340 3 0 35 -28 71 -63z m615 -214 c29 -27 65 -57 80 -68 l29 -20
-80 -135 c-44 -74 -128 -218 -188 -320 -98 -168 -149 -253 -283 -480 -25 -41
-47 -77 -50 -80 -8 -8 7 153 29 310 33 238 97 540 161 757 l21 72 101 4 c55 1
107 4 115 5 8 1 37 -19 65 -45z m561 -208 c163 -26 383 -49 650 -66 410 -26
2180 -26 2600 0 363 23 735 70 871 110 30 8 32 7 61 -43 16 -28 173 -296 349
-596 652 -1111 805 -1384 1019 -1823 321 -659 444 -1085 477 -1653 9 -165 9
-235 0 -314 -44 -377 -321 -748 -828 -1110 -289 -206 -734 -444 -1102 -589
l-102 -41 -2046 0 -2046 0 -121 49 c-332 134 -689 319 -957 496 -518 342 -818
682 -926 1050 -33 113 -42 291 -25 515 55 731 273 1300 961 2505 164 286 211
368 388 670 74 127 222 379 329 561 l195 332 51 -14 c29 -8 120 -25 202 -39z
m3920 -6390 l-1 -60 -1972 -3 -1972 -2 0 65 0 65 1973 -2 1972 -3 0 -60z"/>
<path d="M6184 15832 c4 -10 58 -138 122 -283 64 -145 167 -383 231 -529 63
-146 145 -335 183 -420 37 -85 224 -513 415 -950 191 -437 360 -824 376 -860
15 -36 53 -121 83 -189 29 -68 60 -128 68 -132 30 -17 406 -84 416 -74 5 5 -2
23 -323 820 -157 391 -342 850 -411 1020 -68 171 -243 603 -387 960 l-262 650
-258 3 c-248 2 -258 2 -253 -16z"/>
<path d="M7296 15833 c4 -18 43 -173 203 -803 146 -576 424 -1672 542 -2140
61 -239 115 -451 120 -472 9 -34 12 -37 57 -42 98 -14 222 -22 222 -15 0 4
-22 104 -49 221 -27 117 -75 326 -106 463 -31 138 -83 365 -115 505 -32 140
-77 338 -100 440 -23 102 -68 300 -100 440 -32 140 -79 347 -104 460 -26 113
-57 252 -71 310 -14 58 -38 164 -54 235 -16 72 -44 194 -62 273 l-33 142 -177
0 c-164 0 -177 -1 -173 -17z"/>
<path d="M11880 12029 c-86 -13 -441 -37 -705 -49 -650 -27 -975 -34 -1600
-34 -602 0 -859 5 -1521 30 l-171 7 -13 -34 c-7 -19 -14 -79 -17 -134 -6 -127
17 -222 112 -461 80 -202 150 -411 160 -476 l7 -48 1784 0 1784 0 0 23 c0 12
13 86 30 164 44 213 109 426 185 608 21 50 44 113 51 140 25 93 13 277 -19
274 -7 -1 -37 -5 -67 -10z"/>
<path d="M8116 10158 c-2 -7 -11 -49 -21 -93 -43 -196 -142 -422 -270 -615
-41 -63 -73 -115 -72 -116 15 -16 504 -52 862 -64 386 -13 1602 -13 1945 0
570 21 929 60 1156 125 106 31 164 67 181 115 27 73 -8 229 -97 435 -29 66
-60 143 -70 170 l-17 50 -1797 3 c-1433 2 -1797 0 -1800 -10z"/>
<path d="M11610 8944 c-144 -35 -551 -83 -885 -103 -522 -33 -1429 -54 -1892
-44 -139 4 -253 4 -253 1 0 -5 -54 -164 -280 -828 -220 -646 -219 -644 -216
-647 1 -2 55 104 118 235 64 130 209 424 323 653 l206 417 277 6 c963 21 1485
59 2009 146 211 35 461 95 586 140 115 42 118 51 7 24z"/>
<path d="M6143 6484 c-302 -628 -418 -1049 -438 -1604 -8 -199 2 -272 54 -406
166 -428 800 -924 1643 -1285 l138 -59 368 0 367 0 -105 58 c-362 198 -671
424 -911 662 -207 207 -331 388 -398 585 -46 138 -54 212 -48 450 16 562 136
1042 411 1644 31 67 56 124 56 127 0 2 -237 4 -526 4 l-525 0 -86 -176z"/>
<path d="M7666 6528 c-294 -619 -415 -1080 -433 -1649 -7 -228 -1 -274 58
-426 84 -214 242 -436 479 -673 218 -218 447 -394 736 -566 l141 -84 1482 0
1481 0 142 61 c522 223 997 520 1293 807 206 200 327 384 382 582 14 53 17 99
16 250 -4 546 -128 1015 -438 1656 l-84 174 -2596 0 -2596 0 -63 -132z"/>
</g>
</svg>
