<?xml version="1.0" standalone="yes"?>
<svg xmlns="http://www.w3.org/2000/svg" width="252" height="200">
<path style="fill:#ffffff; stroke:none;" d="M0 0L0 200L252 200L252 0L0 0z"/>
<path style="fill:#a3cbbc; stroke:none;" d="M182 34L183 35L182 34z"/>
<path style="fill:#bc986d; stroke:none;" d="M182 35C182.097 46.6838 181.276 48.002 171 54L171 55C182.31 56.523 184.009 60.4301 186 71L187 71C191.827 60.6606 195.269 59.9781 206 62C201.121 51.3494 199.128 51.3056 204 40C192.536 41.9727 191.795 41.8977 182 35z"/>
<path style="fill:#a3cbbc; stroke:none;" d="M203.667 39.3333L204.333 39.6667L203.667 39.3333M198 41L199 42L198 41M203 41L204 42L203 41M182 42L182 47L183 47L182 42M190 42L191 43L190 42M195 42L196 43L195 42M191 43L192 44L191 43M200 46L201 47L200 46M199 48L200 49L199 48M177 50L178 51L177 50M175 51L176 52L175 51M198 51L199 52L198 51M173 52L174 53L173 52M171 53L172 54L171 53M174 55L175 56L174 55M201 55L202 56L201 55M178 56L179 57L178 56M202 56L203 57L202 56M136.667 57.3333L137.333 57.6667L136.667 57.3333M181.667 57.3333L182.333 57.6667L181.667 57.3333M132 58L133 59L132 58z"/>
<path style="fill:#5e9070; stroke:none;" d="M133 58L134 59L133 58z"/>
<path style="fill:#0e724b; stroke:none;" d="M121 86C125.862 84.6203 149.587 73.5161 147.238 85C143.842 101.61 118.051 95.8688 113.202 112C110.366 121.434 102.25 139.378 104.843 148.999C105.742 152.331 107.985 154.872 111.015 156.442C119.093 160.627 142.786 169.161 150.956 163.991C157.206 160.035 157.854 150.538 159.71 144C164.523 127.042 168.896 109.961 173.71 93C175.503 86.684 179.45 77.2111 175.258 71.1049C172.872 67.6299 168.829 66.4291 165 65.294C156.185 62.6805 138.344 54.0387 130.109 60.5139C124.034 65.2906 121.985 78.6933 121 86z"/>
<path style="fill:#5e9070; stroke:none;" d="M140 58L141 59L140 58z"/>
<path style="fill:#a3cbbc; stroke:none;" d="M141 58L142 59L141 58M130 59L131 60L130 59z"/>
<path style="fill:#5e9070; stroke:none;" d="M144 59L145 60L144 59z"/>
<path style="fill:#a3cbbc; stroke:none;" d="M145 59L146 60L145 59M129 60L130 61L129 60z"/>
<path style="fill:#5e9070; stroke:none;" d="M147 60L148 61L147 60z"/>
<path style="fill:#a3cbbc; stroke:none;" d="M148.667 60.3333L149.333 60.6667L148.667 60.3333M192 60L193 61L192 60M196.667 60.3333L197.333 60.6667L196.667 60.3333M128 61L129 62L128 61z"/>
<path style="fill:#5e9070; stroke:none;" d="M151 61L152 62L151 61z"/>
<path style="fill:#a3cbbc; stroke:none;" d="M152 61L153 62L152 61M202.667 61.3333L203.333 61.6667L202.667 61.3333M206 61L207 62L206 61M127 62L128 63L127 62M155.667 62.3333L156.333 62.6667L155.667 62.3333M184.333 62.6667L184.667 63.3333L184.333 62.6667M191 62L192 63L191 62z"/>
<path style="fill:#5e9070; stroke:none;" d="M158 63L159 64L158 63z"/>
<path style="fill:#a3cbbc; stroke:none;" d="M159 63L160 64L159 63M126 64L127 65L126 64z"/>
<path style="fill:#5e9070; stroke:none;" d="M162 64L163 65L162 64z"/>
<path style="fill:#a3cbbc; stroke:none;" d="M163 64L164 65L163 64z"/>
<path style="fill:#5e9070; stroke:none;" d="M165 65L166 66L165 65z"/>
<path style="fill:#a3cbbc; stroke:none;" d="M166.667 65.3333L167.333 65.6667L166.667 65.3333M125.333 66.6667L125.667 67.3333L125.333 66.6667z"/>
<path style="fill:#5e9070; stroke:none;" d="M169 66L170 67L169 66z"/>
<path style="fill:#a3cbbc; stroke:none;" d="M170 66L171 67L170 66z"/>
<path style="fill:#5e9070; stroke:none;" d="M171 67L172 68L171 67z"/>
<path style="fill:#a3cbbc; stroke:none;" d="M172 67L173 68L172 67M188 67L189 68L188 67z"/>
<path style="fill:#5e9070; stroke:none;" d="M125 68L126 69L125 68z"/>
<path style="fill:#a3cbbc; stroke:none;" d="M173 68L174 69L173 68M185.333 68.6667L185.667 69.3333L185.333 68.6667M174 69L175 70L174 69M187 69L188 70L187 69M124 70L125 71L124 70M175 70L176 71L175 70z"/>
<path style="fill:#5e9070; stroke:none;" d="M124 71L125 72L124 71M176 72L177 73L176 72z"/>
<path style="fill:#a3cbbc; stroke:none;" d="M123.333 73.6667L123.667 74.3333L123.333 73.6667M177.333 74.6667L177.667 75.3333L177.333 74.6667z"/>
<path style="fill:#5e9070; stroke:none;" d="M123 75L124 76L123 75M177 76L177 79L178 79L177 76z"/>
<path style="fill:#a3cbbc; stroke:none;" d="M197 76L198 77L197 76M122.333 77.6667L122.667 78.3333L122.333 77.6667M182.333 77.6667L182.667 78.3333L182.333 77.6667z"/>
<path style="fill:#bc986d; stroke:none;" d="M183 78C183.999 84.9626 183.002 87.1989 179 93C186.565 92.0701 188.283 94.0133 191 101L192 101L194 92L203 91L203 90C197.142 86.5636 196.371 83.3817 198 77C191.602 79.807 189.674 80.7963 183 78z"/>
<path style="fill:#5e9070; stroke:none;" d="M143 78L144 79L143 78z"/>
<path style="fill:#bc986d; stroke:none;" d="M45 107L60.7415 141L67.3904 152.972L79 154L106 154C103.1 143.036 107.291 133.694 110.116 123C111.251 118.702 114.365 112.916 110 110C116.794 96.1859 153.866 100.092 146 78L45 107z"/>
<path style="fill:#a3cbbc; stroke:none;" d="M184 78L185 79L184 78M197.333 78.6667L197.667 79.3333L197.333 78.6667z"/>
<path style="fill:#5e9070; stroke:none;" d="M140.667 79.3333L141.333 79.6667L140.667 79.3333M146 79L147 80L146 79z"/>
<path style="fill:#a3cbbc; stroke:none;" d="M177.333 79.6667L177.667 80.3333L177.333 79.6667M193 79L194 80L193 79z"/>
<path style="fill:#5e9070; stroke:none;" d="M138 80L139 81L138 80z"/>
<path style="fill:#a3cbbc; stroke:none;" d="M192 80L193 81L192 80M121 81L122 82L121 81z"/>
<path style="fill:#5e9070; stroke:none;" d="M135 81L136 82L135 81M147 81L148 82L147 81z"/>
<path style="fill:#a3cbbc; stroke:none;" d="M183 81L184 82L183 81M189 81L190 82L189 81z"/>
<path style="fill:#5e9070; stroke:none;" d="M121 82L122 83L121 82M132 82L133 83L132 82M176 82L177 83L176 82M129 83L130 84L129 83M161 83L160 85L161 83z"/>
<path style="fill:#a3cbbc; stroke:none;" d="M176.333 83.6667L176.667 84.3333L176.333 83.6667M196.333 83.6667L196.667 84.3333L196.333 83.6667M120.333 84.6667L120.667 85.3333L120.333 84.6667z"/>
<path style="fill:#5e9070; stroke:none;" d="M126 84L127 85L126 84z"/>
<path style="fill:#bc986d; stroke:none;" d="M161 84L153 89L154 98L164 100L168 92L161 84z"/>
<path style="fill:#a3cbbc; stroke:none;" d="M184 84L185 85L184 84z"/>
<path style="fill:#5e9070; stroke:none;" d="M122.667 85.3333L123.333 85.6667L122.667 85.3333M147 85L148 86L147 85z"/>
<path style="fill:#a3cbbc; stroke:none;" d="M119 86L120 87L119 86z"/>
<path style="fill:#5e9070; stroke:none;" d="M159 86L160 87L159 86M175 86L176 87L175 86z"/>
<path style="fill:#a3cbbc; stroke:none;" d="M197 86L198 87L197 86z"/>
<path style="fill:#5e9070; stroke:none;" d="M162.333 87.6667L162.667 88.3333L162.333 87.6667z"/>
<path style="fill:#a3cbbc; stroke:none;" d="M175 87L176 88L175 87M198 87L199 88L198 87M111 88L112 89L111 88M152 88L153 89L152 88z"/>
<path style="fill:#5e9070; stroke:none;" d="M153 88L153 89L157 89L153 88z"/>
<path style="fill:#a3cbbc; stroke:none;" d="M182 88L183 89L182 88M105.667 89.3333L106.333 89.6667L105.667 89.3333z"/>
<path style="fill:#5e9070; stroke:none;" d="M145 89L146 90L145 89M152 89L153 90L152 89z"/>
<path style="fill:#a3cbbc; stroke:none;" d="M181 89L182 90L181 89M201 89L202 90L201 89M96.6667 90.3333L97.3333 90.6667L96.6667 90.3333z"/>
<path style="fill:#5e9070; stroke:none;" d="M144 90L145 91L144 90M153 90L154 91L153 90M165.667 90.3333L166.333 90.6667L165.667 90.3333z"/>
<path style="fill:#a3cbbc; stroke:none;" d="M174.333 90.6667L174.667 91.3333L174.333 90.6667M180 90L181 91L180 90z"/>
<path style="fill:#5e9070; stroke:none;" d="M143 91L144 92L143 91M154 91L155 92L154 91M168 91L169 92L168 91z"/>
<path style="fill:#a3cbbc; stroke:none;" d="M179 91L180 92L179 91M198 91L198 92L203 92L198 91M89 92L90 93L89 92z"/>
<path style="fill:#5e9070; stroke:none;" d="M155.333 92.6667L155.667 93.3333L155.333 92.6667M167 92L168 93L167 92z"/>
<path style="fill:#a3cbbc; stroke:none;" d="M178 92L179 93L178 92M182 92L182 93L188 93L182 92z"/>
<path style="fill:#5e9070; stroke:none;" d="M140 93L141 94L140 93M165 93L166 94L165 93M173 93L174 94L173 93z"/>
<path style="fill:#a3cbbc; stroke:none;" d="M84 94L85 95L84 94z"/>
<path style="fill:#5e9070; stroke:none;" d="M139 94L140 95L139 94z"/>
<path style="fill:#a3cbbc; stroke:none;" d="M173.333 94.6667L173.667 95.3333L173.333 94.6667M188 94L189 95L188 94M82 95L83 96L82 95z"/>
<path style="fill:#5e9070; stroke:none;" d="M137 95L138 96L137 95M154.333 95.6667L154.667 96.3333L154.333 95.6667M163.333 95.6667L163.667 96.3333L163.333 95.6667z"/>
<path style="fill:#a3cbbc; stroke:none;" d="M80 96L81 97L80 96z"/>
<path style="fill:#5e9070; stroke:none;" d="M133 97L134 98L133 97M160 97L161 98L160 97M172.333 97.6667L172.667 98.3333L172.333 97.6667z"/>
<path style="fill:#bc986d; stroke:none;" d="M173 97L170 107C177.666 106.579 179.041 101.792 173 97z"/>
<path style="fill:#a3cbbc; stroke:none;" d="M76 98L77 99L76 98z"/>
<path style="fill:#5e9070; stroke:none;" d="M130 98L131 99L130 98M153.667 98.3333L154.333 98.6667L153.667 98.3333z"/>
<path style="fill:#a3cbbc; stroke:none;" d="M175 98L176 99L175 98M192 98L193 99L192 98M73 99L74 100L73 99z"/>
<path style="fill:#5e9070; stroke:none;" d="M127 99L128 100L127 99M139 99L139 100L144 100L139 99z"/>
<path style="fill:#a3cbbc; stroke:none;" d="M176 99L177 100L176 99M190 99L191 100L190 99z"/>
<path style="fill:#5e9070; stroke:none;" d="M124 100L125 101L124 100M135 100L136 101L135 100z"/>
<path style="fill:#a3cbbc; stroke:none;" d="M136 100L137 101L136 100z"/>
<path style="fill:#ffffff; stroke:none;" d="M137 100.653C120.927 105.675 128.761 130.103 144.999 125.427C161.056 120.804 153.042 95.6398 137 100.653z"/>
<path style="fill:#a3cbbc; stroke:none;" d="M145 100L146 101L145 100z"/>
<path style="fill:#5e9070; stroke:none;" d="M163 100L164 101L163 100z"/>
<path style="fill:#a3cbbc; stroke:none;" d="M66 101L67 102L66 101z"/>
<path style="fill:#5e9070; stroke:none;" d="M121 101L122 102L121 101M133 101L134 102L133 101z"/>
<path style="fill:#a3cbbc; stroke:none;" d="M134 101L135 102L134 101M147 101L148 102L147 101z"/>
<path style="fill:#5e9070; stroke:none;" d="M171.333 101.667L171.667 102.333L171.333 101.667z"/>
<path style="fill:#a3cbbc; stroke:none;" d="M177 101L178 102L177 101M63 102L64 103L63 102z"/>
<path style="fill:#5e9070; stroke:none;" d="M118 102L119 103L118 102z"/>
<path style="fill:#a3cbbc; stroke:none;" d="M132 102L133 103L132 102M137 102L138 103L137 102z"/>
<path style="fill:#5e9070; stroke:none;" d="M138 102L139 103L138 102z"/>
<path style="fill:#0e724b; stroke:none;" d="M132 108L133 108L138 108L137 105L143 102C138.141 102.427 134.349 103.511 132 108z"/>
<path style="fill:#5e9070; stroke:none;" d="M143 102L144 103L143 102z"/>
<path style="fill:#a3cbbc; stroke:none;" d="M144 102L143 104L144 102z"/>
<path style="fill:#5e9070; stroke:none;" d="M149 102L150 103L149 102z"/>
<path style="fill:#a3cbbc; stroke:none;" d="M58.6667 103.333L59.3333 103.667L58.6667 103.333z"/>
<path style="fill:#5e9070; stroke:none;" d="M116 103L117 104L116 103z"/>
<path style="fill:#a3cbbc; stroke:none;" d="M131 103L132 104L131 103M135 103L136 104L135 103z"/>
<path style="fill:#0e724b; stroke:none;" d="M144 103L148 107L146 111L151 113L152 113C151.076 107.901 148.972 104.731 144 103z"/>
<path style="fill:#a3cbbc; stroke:none;" d="M146 103L147 104L146 103M150 103L151 104L150 103M54 104L55 105L54 104z"/>
<path style="fill:#ffffff; stroke:none;" d="M114 104C111.214 106.596 110.274 108.061 113 111L114 104z"/>
<path style="fill:#5e9070; stroke:none;" d="M115 104L116 105L115 104z"/>
<path style="fill:#a3cbbc; stroke:none;" d="M130 104L131 105L130 104z"/>
<path style="fill:#5e9070; stroke:none;" d="M139 104L137 105L137 106L139 104M141 104L143 107L141 104z"/>
<path style="fill:#ffffff; stroke:none;" d="M142 104L142 106L144 106L144 104L142 104z"/>
<path style="fill:#5e9070; stroke:none;" d="M144 104L144 107L145 107L144 104M151 104L152 105L151 104M170.333 104.667L170.667 105.333L170.333 104.667M129 105L130 106L129 105z"/>
<path style="fill:#a3cbbc; stroke:none;" d="M132 105L133 106L132 105M139.667 105.333L140.333 105.667L139.667 105.333M45 106L46 107L45 106M114 106L115 107L114 106M133 106L133 107L137 109L133 118L135 120L132 118L131 118L137 124L139 121L137 116L143 119L140 119L140 125L146 123L143 123L144 120L147 123L148 123L149 119L152 116L149 116L146 121L145 108L143 109L144 106L138 107L138 108L140 110L133 106z"/>
<path style="fill:#ffffff; stroke:none;" d="M138 106L138 107L142 107L138 106z"/>
<path style="fill:#a3cbbc; stroke:none;" d="M145 106L146 107L145 106z"/>
<path style="fill:#5e9070; stroke:none;" d="M146 106L147 109L146 114L147 114L146 106z"/>
<path style="fill:#a3cbbc; stroke:none;" d="M152 106L153 107L152 106z"/>
<path style="fill:#5e9070; stroke:none;" d="M114.333 107.667L114.667 108.333L114.333 107.667M128 107L129 108L128 107M131 107L130 110L134 110L134 109L131 107z"/>
<path style="fill:#ffffff; stroke:none;" d="M132 108L132 109L136 109L132 108M143 107L143 108L147 109L147 108L143 107z"/>
<path style="fill:#5e9070; stroke:none;" d="M150 107L151 108L150 107M153 107L154 108L153 107z"/>
<path style="fill:#a3cbbc; stroke:none;" d="M170 107L171 108L170 107M45 108L46 109L45 108M128 108L129 109L128 108M130 108L131 109L130 108z"/>
<path style="fill:#5e9070; stroke:none;" d="M137 108L137 109L140 110L137 108M143 108L144 109L143 108z"/>
<path style="fill:#a3cbbc; stroke:none;" d="M153 108L154 109L153 108z"/>
<path style="fill:#5e9070; stroke:none;" d="M169.333 108.667L169.667 109.333L169.333 108.667z"/>
<path style="fill:#a3cbbc; stroke:none;" d="M110 109L111 110L110 109M131.333 109.667L131.667 110.333L131.333 109.667M134 109L135 110L134 109z"/>
<path style="fill:#0e724b; stroke:none;" d="M135 109L132 116C134.527 113.899 136.038 112.292 135 109z"/>
<path style="fill:#5e9070; stroke:none;" d="M136 109L137 110L136 109z"/>
<path style="fill:#ffffff; stroke:none;" d="M142 109L143 110L142 109z"/>
<path style="fill:#0e724b; stroke:none;" d="M144 109L145 110L144 109z"/>
<path style="fill:#5e9070; stroke:none;" d="M151 109L152 110L151 109z"/>
<path style="fill:#bc986d; stroke:none;" d="M170 109L167 118C172.449 116.864 174.159 113.089 170 109z"/>
<path style="fill:#a3cbbc; stroke:none;" d="M46 110L47 111L46 110M113 110L114 111L113 110z"/>
<path style="fill:#5e9070; stroke:none;" d="M127 110L128 111L127 110z"/>
<path style="fill:#ffffff; stroke:none;" d="M132.667 110.333L133.333 110.667L132.667 110.333z"/>
<path style="fill:#5e9070; stroke:none;" d="M140 110L141 111L140 110z"/>
<path style="fill:#0e724b; stroke:none;" d="M142 110L143 111L142 110z"/>
<path style="fill:#5e9070; stroke:none;" d="M143 110L144 111L143 110z"/>
<path style="fill:#a3cbbc; stroke:none;" d="M147.333 110.667L147.667 111.333L147.333 110.667z"/>
<path style="fill:#5e9070; stroke:none;" d="M148.667 110.333L149.333 110.667L148.667 110.333z"/>
<path style="fill:#a3cbbc; stroke:none;" d="M150 110L151 111L150 110M127 111L127 115L128 115L127 111z"/>
<path style="fill:#0e724b; stroke:none;" d="M130 111L131 112L130 111z"/>
<path style="fill:#5e9070; stroke:none;" d="M131.667 111.333L132.333 111.667L131.667 111.333z"/>
<path style="fill:#ffffff; stroke:none;" d="M140 111L141 112L140 111M142 111L141 114L142 111M148 111L151 114L148 111z"/>
<path style="fill:#5e9070; stroke:none;" d="M154 111L154 116L155 116L154 111z"/>
<path style="fill:#a3cbbc; stroke:none;" d="M131 112L131 114L133 112L131 112z"/>
<path style="fill:#5e9070; stroke:none;" d="M143 112L143 116L144 116L143 112z"/>
<path style="fill:#0e724b; stroke:none;" d="M147 112L147 119L148 119L147 112z"/>
<path style="fill:#a3cbbc; stroke:none;" d="M152 112L151 115L152 112z"/>
<path style="fill:#5e9070; stroke:none;" d="M168 112L169 113L168 112z"/>
<path style="fill:#a3cbbc; stroke:none;" d="M129 113L130 114L129 113z"/>
<path style="fill:#5e9070; stroke:none;" d="M130 113L130 115L132 115L130 113M135 113L136 114L135 113M139 113L140 114L139 113z"/>
<path style="fill:#a3cbbc; stroke:none;" d="M143 113L144 114L143 113z"/>
<path style="fill:#5e9070; stroke:none;" d="M149 113L148 114L151 117L152 116L149 113M151 113L152 114L151 113z"/>
<path style="fill:#a3cbbc; stroke:none;" d="M173.333 113.667L173.667 114.333L173.333 113.667z"/>
<path style="fill:#5e9070; stroke:none;" d="M112 114L113 115L112 114M134 114L135 115L134 114M141 114L142 115L141 114z"/>
<path style="fill:#a3cbbc; stroke:none;" d="M149 114L150 115L149 114z"/>
<path style="fill:#5e9070; stroke:none;" d="M127 115L128 116L127 115z"/>
<path style="fill:#a3cbbc; stroke:none;" d="M130 115L132 117L132 115L130 115z"/>
<path style="fill:#5e9070; stroke:none;" d="M133 115L134 116L133 115z"/>
<path style="fill:#ffffff; stroke:none;" d="M150 115L151 116L150 115z"/>
<path style="fill:#5e9070; stroke:none;" d="M130 116L131 117L130 116z"/>
<path style="fill:#ffffff; stroke:none;" d="M132 116L132 118L134 116L132 116z"/>
<path style="fill:#5e9070; stroke:none;" d="M137 116L138 117L137 116M142 116L142 119L143 119L142 116M148 116L148 119L150 118L150 117L148 116M167 116L168 117L167 116M111.333 117.667L111.667 118.333L111.333 117.667z"/>
<path style="fill:#a3cbbc; stroke:none;" d="M128 117L129 118L128 117z"/>
<path style="fill:#5e9070; stroke:none;" d="M131 117L132 118L131 117M134 117L135 118L134 117M146 117L145 118L148 120L146 117z"/>
<path style="fill:#a3cbbc; stroke:none;" d="M153 117L154 118L153 117z"/>
<path style="fill:#5e9070; stroke:none;" d="M128 118L129 119L128 118z"/>
<path style="fill:#0e724b; stroke:none;" d="M132 118L132 119L135 119L132 118z"/>
<path style="fill:#5e9070; stroke:none;" d="M150 118L151 119L150 118M153 118L154 119L153 118M132 119L132 120L135 120L132 119M135 120L135 121L138 121L135 120M141 119L143 121L141 119z"/>
<path style="fill:#ffffff; stroke:none;" d="M145 119L147 121L147 119L145 119z"/>
<path style="fill:#5e9070; stroke:none;" d="M149 119L150 120L149 119z"/>
<path style="fill:#a3cbbc; stroke:none;" d="M152 119L153 120L152 119z"/>
<path style="fill:#5e9070; stroke:none;" d="M166.333 119.667L166.667 120.333L166.333 119.667M129 120L130 121L129 120M140 120L140 124L141 124L140 120z"/>
<path style="fill:#0e724b; stroke:none;" d="M144 120L146 123L144 120z"/>
<path style="fill:#5e9070; stroke:none;" d="M148 120L147 122L148 120M152 120L153 121L152 120z"/>
<path style="fill:#bc986d; stroke:none;" d="M167 120L165 127C168.841 125.721 169.182 123.258 167 120z"/>
<path style="fill:#5e9070; stroke:none;" d="M110.333 121.667L110.667 122.333L110.333 121.667z"/>
<path style="fill:#a3cbbc; stroke:none;" d="M130 121L131 122L130 121z"/>
<path style="fill:#5e9070; stroke:none;" d="M143.333 121.667L143.667 122.333L143.333 121.667z"/>
<path style="fill:#a3cbbc; stroke:none;" d="M151 121L152 122L151 121M131 122L132 123L131 122z"/>
<path style="fill:#5e9070; stroke:none;" d="M136 122L137 123L136 122M146 122L147 123L146 122z"/>
<path style="fill:#a3cbbc; stroke:none;" d="M150 122L151 123L150 122M52 123L53 124L52 123M132 123L133 124L132 123z"/>
<path style="fill:#5e9070; stroke:none;" d="M142 123L143 124L142 123z"/>
<path style="fill:#a3cbbc; stroke:none;" d="M149 123L150 124L149 123z"/>
<path style="fill:#5e9070; stroke:none;" d="M165.333 123.667L165.667 124.333L165.333 123.667M133 124L134 125L133 124M148 124L149 125L148 124z"/>
<path style="fill:#a3cbbc; stroke:none;" d="M53 125L54 126L53 125z"/>
<path style="fill:#5e9070; stroke:none;" d="M109.333 125.667L109.667 126.333L109.333 125.667z"/>
<path style="fill:#a3cbbc; stroke:none;" d="M135 125L136 126L135 125M145 125L146 126L145 125z"/>
<path style="fill:#5e9070; stroke:none;" d="M146 125L147 126L146 125M138 126L139 127L138 126z"/>
<path style="fill:#a3cbbc; stroke:none;" d="M139 126L139 127L143 127L139 126z"/>
<path style="fill:#5e9070; stroke:none;" d="M143 126L144 127L143 126z"/>
<path style="fill:#a3cbbc; stroke:none;" d="M54 127L55 128L54 127z"/>
<path style="fill:#5e9070; stroke:none;" d="M164 127L165 128L164 127z"/>
<path style="fill:#a3cbbc; stroke:none;" d="M165 127L166 128L165 127z"/>
<path style="fill:#5e9070; stroke:none;" d="M108.333 128.667L108.667 129.333L108.333 128.667M163 129L164 130L163 129z"/>
<path style="fill:#a3cbbc; stroke:none;" d="M163.333 130.667L163.667 131.333L163.333 130.667z"/>
<path style="fill:#5e9070; stroke:none;" d="M107.333 132.667L107.667 133.333L107.333 132.667M162.333 133.667L162.667 134.333L162.333 133.667z"/>
<path style="fill:#bc986d; stroke:none;" d="M162 135L161 141C164.673 139.968 165.369 137.076 162 135z"/>
<path style="fill:#5e9070; stroke:none;" d="M106 136L107 137L106 136M161.333 137.667L161.667 138.333L161.333 137.667z"/>
<path style="fill:#a3cbbc; stroke:none;" d="M59 138L60 139L59 138z"/>
<path style="fill:#5e9070; stroke:none;" d="M105.333 139.667L105.667 140.333L105.333 139.667z"/>
<path style="fill:#a3cbbc; stroke:none;" d="M164 139L165 140L164 139M60 140L61 141L60 140z"/>
<path style="fill:#5e9070; stroke:none;" d="M160 141L161 142L160 141z"/>
<path style="fill:#a3cbbc; stroke:none;" d="M161 141L162 142L161 141M61 142L62 143L61 142M160 142L161 143L160 142z"/>
<path style="fill:#5e9070; stroke:none;" d="M104.333 143.667L104.667 144.333L104.333 143.667z"/>
<path style="fill:#a3cbbc; stroke:none;" d="M62 144L63 145L62 144z"/>
<path style="fill:#5e9070; stroke:none;" d="M159 144L160 145L159 144z"/>
<path style="fill:#a3cbbc; stroke:none;" d="M159.333 145.667L159.667 146.333L159.333 145.667z"/>
<path style="fill:#5e9070; stroke:none;" d="M104.333 148.667L104.667 149.333L104.333 148.667M158 148L159 149L158 148z"/>
<path style="fill:#a3cbbc; stroke:none;" d="M158 149L159 150L158 149z"/>
<path style="fill:#5e9070; stroke:none;" d="M105 151L106 152L105 151z"/>
<path style="fill:#a3cbbc; stroke:none;" d="M157.333 152.667L157.667 153.333L157.333 152.667M66 153L67 154L66 153M106 153L107 154L106 153M107 154L108 155L107 154M108 155L109 156L108 155z"/>
<path style="fill:#5e9070; stroke:none;" d="M156 155L157 156L156 155M110 156L111 157L110 156z"/>
<path style="fill:#a3cbbc; stroke:none;" d="M156 156L157 157L156 156M112 157L113 158L112 157z"/>
<path style="fill:#5e9070; stroke:none;" d="M113 157L114 158L113 157z"/>
<path style="fill:#a3cbbc; stroke:none;" d="M115 158L116 159L115 158z"/>
<path style="fill:#5e9070; stroke:none;" d="M116 158L117 159L116 158z"/>
<path style="fill:#a3cbbc; stroke:none;" d="M119 159L120 160L119 159z"/>
<path style="fill:#5e9070; stroke:none;" d="M120 159L121 160L120 159z"/>
<path style="fill:#a3cbbc; stroke:none;" d="M155 159L156 160L155 159M122.667 160.333L123.333 160.667L122.667 160.333z"/>
<path style="fill:#5e9070; stroke:none;" d="M124 160L125 161L124 160z"/>
<path style="fill:#a3cbbc; stroke:none;" d="M126 161L127 162L126 161z"/>
<path style="fill:#5e9070; stroke:none;" d="M127 161L128 162L127 161z"/>
<path style="fill:#a3cbbc; stroke:none;" d="M154 161L155 162L154 161M129.667 162.333L130.333 162.667L129.667 162.333z"/>
<path style="fill:#5e9070; stroke:none;" d="M131 162L132 163L131 162z"/>
<path style="fill:#a3cbbc; stroke:none;" d="M153 162L154 163L153 162M133 163L134 164L133 163z"/>
<path style="fill:#5e9070; stroke:none;" d="M134 163L135 164L134 163z"/>
<path style="fill:#a3cbbc; stroke:none;" d="M152 163L153 164L152 163M137 164L138 165L137 164z"/>
<path style="fill:#5e9070; stroke:none;" d="M138 164L139 165L138 164M150 164L151 165L150 164z"/>
<path style="fill:#a3cbbc; stroke:none;" d="M140.667 165.333L141.333 165.667L140.667 165.333z"/>
<path style="fill:#5e9070; stroke:none;" d="M142 165L143 166L142 165z"/>
<path style="fill:#a3cbbc; stroke:none;" d="M148.667 165.333L149.333 165.667L148.667 165.333z"/>
</svg>
